<svg width="80" height="80" xmlns="http://www.w3.org/2000/svg" xmlns:xlink="http://www.w3.org/1999/xlink" overflow="hidden"><defs><clipPath id="clip0"><rect x="740" y="325" width="80" height="80"/></clipPath><clipPath id="clip1"><rect x="740" y="326" width="80" height="79"/></clipPath><clipPath id="clip2"><rect x="740" y="326" width="80" height="79"/></clipPath><clipPath id="clip3"><rect x="740" y="326" width="80" height="79"/></clipPath></defs><g clip-path="url(#clip0)" transform="translate(-740 -325)"><g clip-path="url(#clip1)"><g clip-path="url(#clip2)"><g clip-path="url(#clip3)"><path d="M54.3125 70.4417C53.9175 70.4417 53.5225 70.1125 53.5225 69.7175 53.325 68.2692 51.8767 55.2342 53.5883 51.8767 54.2467 50.56 55.1683 49.0458 56.0242 47.5317 58.3942 43.5158 61.0275 39.0392 62.015 34.5625 63.6608 27.0575 62.7392 21.0667 59.1842 16.8533 52.93 9.21667 40.3558 9.54583 40.2242 9.54583 33.7725 9.54583 25.4775 12.3767 22.0542 17.7092 19.8817 21.0667 19.6183 27.255 20.0133 31.995 20.4083 36.1425 14.9442 44.5033 14.4175 45.3592 14.3517 45.4908 14.3517 45.6225 14.3517 45.6883 14.5492 45.7542 14.8783 45.7542 15.2075 45.82 17.4458 46.1492 18.3675 46.3467 18.6308 47.0708 18.6967 47.2683 18.8942 47.7292 18.6967 56.7483 18.6967 56.8142 18.4992 58.855 19.6183 60.1058 20.145 60.6983 20.935 60.9617 21.9225 60.9617 22.4492 60.9617 23.0417 60.9617 23.7 60.8958 26.5967 60.7642 30.2175 60.5667 30.6783 63.8583 31.1392 66.9525 31.0733 69.5858 31.0733 69.6517 31.0733 70.1125 30.6783 70.5075 30.2175 70.4417 29.7567 70.4417 29.4275 70.0467 29.4275 69.5858 29.4275 69.5858 29.4933 67.0183 29.0983 64.0558 28.835 62.41 26.86 62.3442 23.7658 62.4758 23.0417 62.5417 22.4492 62.5417 21.8567 62.5417 20.3425 62.5417 19.1575 62.0808 18.3017 61.0933 16.7217 59.3817 16.985 56.6825 16.985 56.5508 17.0508 52.9958 17.1167 48.9142 17.0508 47.7292 16.5242 47.5975 15.4708 47.4 14.9442 47.3342 14.4833 47.2683 14.0883 47.2025 13.825 47.1367 13.3642 47.005 12.9692 46.7417 12.7717 46.3467 12.3767 45.5567 12.8375 44.635 12.9033 44.4375 12.9033 44.4375 12.9033 44.3717 12.9692 44.3717 14.5492 42.0017 18.6308 35.0892 18.3675 32.0608 17.9067 27.0575 18.3017 20.4742 20.6717 16.7875 24.4242 10.9942 33.3117 7.9 40.1583 7.9 40.685 7.9 53.6542 7.57083 60.435 15.8 64.3192 20.4742 65.3725 26.9258 63.595 34.9575 62.5417 39.6975 59.8425 44.3058 57.4067 48.3875 56.485 49.9017 55.6292 51.35 54.9708 52.6667 53.72 55.1025 54.6417 65.6358 55.0367 69.52 55.1025 69.9808 54.7733 70.3758 54.3125 70.4417 54.3783 70.4417 54.3125 70.4417 54.3125 70.4417Z" fill="#1D428A" fill-rule="nonzero" fill-opacity="1" transform="matrix(1.01266 0 0 1 740 326)"/><path d="M50.6258 38.7758C47.005 38.7758 44.0425 35.8133 44.0425 32.1925 44.0425 28.5717 47.005 25.6092 50.6258 25.6092 54.2467 25.6092 57.2092 28.5717 57.2092 32.1925 57.2092 35.8133 54.2467 38.7758 50.6258 38.7758ZM50.6258 27.255C47.9267 27.255 45.6883 29.4933 45.6883 32.1925 45.6883 34.8917 47.9267 37.13 50.6258 37.13 53.325 37.13 55.5633 34.8917 55.5633 32.1925 55.5633 29.4933 53.3908 27.255 50.6258 27.255Z" fill="#1D428A" fill-rule="nonzero" fill-opacity="1" transform="matrix(1.01266 0 0 1 740 326)"/><path d="M46.7417 25.1483 44.5033 21.9225C45.4908 21.0008 46.0833 19.75 46.0833 18.3017 46.0833 15.6025 43.845 13.3642 41.1458 13.3642 38.4467 13.3642 36.2083 15.6025 36.2083 18.3017 36.2083 21.0008 38.4467 23.2392 41.1458 23.2392 41.87 23.2392 42.5283 23.1075 43.1208 22.8442L45.3592 26.07 46.7417 25.1483ZM37.92 18.3017C37.92 16.4583 39.3683 15.01 41.2117 15.01 43.055 15.01 44.5033 16.4583 44.5033 18.3017 44.5033 20.145 43.055 21.5933 41.2117 21.5933 39.3683 21.5933 37.92 20.145 37.92 18.3017Z" fill="#1D428A" fill-rule="nonzero" fill-opacity="1" transform="matrix(1.01266 0 0 1 740 326)"/><path d="M35.8133 22.7783 34.6942 21.5933 31.0733 25.0167C30.7442 24.7533 30.3492 24.5558 29.8883 24.4242 29.0325 24.2267 28.1767 24.3583 27.3867 24.8192 26.6625 25.28 26.1358 26.0042 25.8725 26.86 25.675 27.7158 25.8067 28.5717 26.2675 29.3617 26.7283 30.1517 27.4525 30.6125 28.3083 30.8758 28.5717 30.9417 28.835 30.9417 29.0983 30.9417 30.6125 30.9417 31.9292 29.9542 32.3242 28.44 32.5217 27.7158 32.39 26.9917 32.1267 26.3333L35.8133 22.7783ZM30.7442 27.9792C30.5467 28.835 29.625 29.4275 28.7692 29.1642 28.3742 29.0325 27.9792 28.7692 27.7817 28.44 27.5842 28.045 27.4525 27.65 27.5842 27.1892 27.7158 26.7942 27.9792 26.3992 28.3083 26.2017 28.5717 26.07 28.835 25.9383 29.1642 25.9383 29.2958 25.9383 29.4275 25.9383 29.5592 26.0042 30.415 26.2017 30.9417 27.1233 30.7442 27.9792Z" fill="#1D428A" fill-rule="nonzero" fill-opacity="1" transform="matrix(1.01266 0 0 1 740 326)"/></g></g></g></g></svg>