<svg width="80" height="80" xmlns="http://www.w3.org/2000/svg" xmlns:xlink="http://www.w3.org/1999/xlink" overflow="hidden"><defs><clipPath id="clip0"><rect x="740" y="196" width="80" height="80"/></clipPath></defs><g clip-path="url(#clip0)" transform="translate(-740 -196)"><path d="M34.4 71.4 28.2 71.4 28.2 69.4 33.2667 69.4 50.0667 40 33.2667 10.6 28.2 10.6 28.2 8.6 34.4 8.6 52.3333 40Z" fill="#0F7CD1" fill-rule="nonzero" fill-opacity="1" transform="matrix(1.00208 0 0 1 739.917 196)"/><path d="M25.4667 17.2C25.4667 18.2309 24.6309 19.0667 23.6 19.0667 22.5691 19.0667 21.7333 18.2309 21.7333 17.2 21.7333 16.1691 22.5691 15.3333 23.6 15.3333 24.6309 15.3333 25.4667 16.1691 25.4667 17.2Z" fill="#0F7CD1" fill-rule="nonzero" fill-opacity="1" transform="matrix(1.00208 0 0 1 739.917 196)"/><path d="M32 17.2C32 18.2309 31.1643 19.0667 30.1333 19.0667 29.1024 19.0667 28.2667 18.2309 28.2667 17.2 28.2667 16.1691 29.1024 15.3333 30.1333 15.3333 31.1643 15.3333 32 16.1691 32 17.2Z" fill="#0F7CD1" fill-rule="nonzero" fill-opacity="1" transform="matrix(1.00208 0 0 1 739.917 196)"/><path d="M38.6 17.2C38.6 18.2309 37.7643 19.0667 36.7333 19.0667 35.7024 19.0667 34.8667 18.2309 34.8667 17.2 34.8667 16.1691 35.7024 15.3333 36.7333 15.3333 37.7643 15.3333 38.6 16.1691 38.6 17.2Z" fill="#0F7CD1" fill-rule="nonzero" fill-opacity="1" transform="matrix(1.00208 0 0 1 739.917 196)"/><path d="M51.7333 17.2C51.7333 18.2309 50.8976 19.0667 49.8667 19.0667 48.8357 19.0667 48 18.2309 48 17.2 48 16.1691 48.8357 15.3333 49.8667 15.3333 50.8976 15.3333 51.7333 16.1691 51.7333 17.2Z" fill="#0F7CD1" fill-rule="nonzero" fill-opacity="1" transform="matrix(1.00208 0 0 1 739.917 196)"/><path d="M58.2667 17.2C58.2667 18.2309 57.4309 19.0667 56.4 19.0667 55.3691 19.0667 54.5333 18.2309 54.5333 17.2 54.5333 16.1691 55.3691 15.3333 56.4 15.3333 57.4309 15.3333 58.2667 16.1691 58.2667 17.2Z" fill="#0F7CD1" fill-rule="nonzero" fill-opacity="1" transform="matrix(1.00208 0 0 1 739.917 196)"/><path d="M32 26.3333C32 27.3643 31.1643 28.2 30.1333 28.2 29.1024 28.2 28.2667 27.3643 28.2667 26.3333 28.2667 25.3024 29.1024 24.4667 30.1333 24.4667 31.1643 24.4667 32 25.3024 32 26.3333Z" fill="#0F7CD1" fill-rule="nonzero" fill-opacity="1" transform="matrix(1.00208 0 0 1 739.917 196)"/><path d="M38.6 26.3333C38.6 27.3643 37.7643 28.2 36.7333 28.2 35.7024 28.2 34.8667 27.3643 34.8667 26.3333 34.8667 25.3024 35.7024 24.4667 36.7333 24.4667 37.7643 24.4667 38.6 25.3024 38.6 26.3333Z" fill="#0F7CD1" fill-rule="nonzero" fill-opacity="1" transform="matrix(1.00208 0 0 1 739.917 196)"/><path d="M64.8 26.3333C64.8 27.3643 63.9643 28.2 62.9333 28.2 61.9024 28.2 61.0667 27.3643 61.0667 26.3333 61.0667 25.3024 61.9024 24.4667 62.9333 24.4667 63.9643 24.4667 64.8 25.3024 64.8 26.3333Z" fill="#0F7CD1" fill-rule="nonzero" fill-opacity="1" transform="matrix(1.00208 0 0 1 739.917 196)"/><path d="M25.4667 35.4667C25.4667 36.4976 24.6309 37.3333 23.6 37.3333 22.5691 37.3333 21.7333 36.4976 21.7333 35.4667 21.7333 34.4357 22.5691 33.6 23.6 33.6 24.6309 33.6 25.4667 34.4357 25.4667 35.4667Z" fill="#0F7CD1" fill-rule="nonzero" fill-opacity="1" transform="matrix(1.00208 0 0 1 739.917 196)"/><path d="M19 35.4667C19 36.4976 18.1643 37.3333 17.1333 37.3333 16.1024 37.3333 15.2667 36.4976 15.2667 35.4667 15.2667 34.4357 16.1024 33.6 17.1333 33.6 18.1643 33.6 19 34.4357 19 35.4667Z" fill="#0F7CD1" fill-rule="nonzero" fill-opacity="1" transform="matrix(1.00208 0 0 1 739.917 196)"/><path d="M32 35.4667C32 36.4976 31.1643 37.3333 30.1333 37.3333 29.1024 37.3333 28.2667 36.4976 28.2667 35.4667 28.2667 34.4357 29.1024 33.6 30.1333 33.6 31.1643 33.6 32 34.4357 32 35.4667Z" fill="#0F7CD1" fill-rule="nonzero" fill-opacity="1" transform="matrix(1.00208 0 0 1 739.917 196)"/><path d="M38.6 35.4667C38.6 36.4976 37.7643 37.3333 36.7333 37.3333 35.7024 37.3333 34.8667 36.4976 34.8667 35.4667 34.8667 34.4357 35.7024 33.6 36.7333 33.6 37.7643 33.6 38.6 34.4357 38.6 35.4667Z" fill="#0F7CD1" fill-rule="nonzero" fill-opacity="1" transform="matrix(1.00208 0 0 1 739.917 196)"/><path d="M45.1333 35.4667C45.1333 36.4976 44.2976 37.3333 43.2667 37.3333 42.2357 37.3333 41.4 36.4976 41.4 35.4667 41.4 34.4357 42.2357 33.6 43.2667 33.6 44.2976 33.6 45.1333 34.4357 45.1333 35.4667Z" fill="#0F7CD1" fill-rule="nonzero" fill-opacity="1" transform="matrix(1.00208 0 0 1 739.917 196)"/><path d="M64.8 35.4667C64.8 36.4976 63.9643 37.3333 62.9333 37.3333 61.9024 37.3333 61.0667 36.4976 61.0667 35.4667 61.0667 34.4357 61.9024 33.6 62.9333 33.6 63.9643 33.6 64.8 34.4357 64.8 35.4667Z" fill="#0F7CD1" fill-rule="nonzero" fill-opacity="1" transform="matrix(1.00208 0 0 1 739.917 196)"/><path d="M71.4 35.4667C71.4 36.4976 70.5643 37.3333 69.5333 37.3333 68.5024 37.3333 67.6667 36.4976 67.6667 35.4667 67.6667 34.4357 68.5024 33.6 69.5333 33.6 70.5643 33.6 71.4 34.4357 71.4 35.4667Z" fill="#0F7CD1" fill-rule="nonzero" fill-opacity="1" transform="matrix(1.00208 0 0 1 739.917 196)"/><path d="M25.4667 44.5333C25.4667 45.5643 24.6309 46.4 23.6 46.4 22.5691 46.4 21.7333 45.5643 21.7333 44.5333 21.7333 43.5024 22.5691 42.6667 23.6 42.6667 24.6309 42.6667 25.4667 43.5024 25.4667 44.5333Z" fill="#0F7CD1" fill-rule="nonzero" fill-opacity="1" transform="matrix(1.00208 0 0 1 739.917 196)"/><path d="M18.9333 44.5333C18.9333 45.5643 18.0976 46.4 17.0667 46.4 16.0357 46.4 15.2 45.5643 15.2 44.5333 15.2 43.5024 16.0357 42.6667 17.0667 42.6667 18.0976 42.6667 18.9333 43.5024 18.9333 44.5333Z" fill="#0F7CD1" fill-rule="nonzero" fill-opacity="1" transform="matrix(1.00208 0 0 1 739.917 196)"/><path d="M12.3333 44.5333C12.3333 45.5643 11.4976 46.4 10.4667 46.4 9.43574 46.4 8.6 45.5643 8.6 44.5333 8.6 43.5024 9.43574 42.6667 10.4667 42.6667 11.4976 42.6667 12.3333 43.5024 12.3333 44.5333Z" fill="#0F7CD1" fill-rule="nonzero" fill-opacity="1" transform="matrix(1.00208 0 0 1 739.917 196)"/><path d="M32 44.5333C32 45.5643 31.1643 46.4 30.1333 46.4 29.1024 46.4 28.2667 45.5643 28.2667 44.5333 28.2667 43.5024 29.1024 42.6667 30.1333 42.6667 31.1643 42.6667 32 43.5024 32 44.5333Z" fill="#0F7CD1" fill-rule="nonzero" fill-opacity="1" transform="matrix(1.00208 0 0 1 739.917 196)"/><path d="M38.6 44.5333C38.6 45.5643 37.7643 46.4 36.7333 46.4 35.7024 46.4 34.8667 45.5643 34.8667 44.5333 34.8667 43.5024 35.7024 42.6667 36.7333 42.6667 37.7643 42.6667 38.6 43.5024 38.6 44.5333Z" fill="#0F7CD1" fill-rule="nonzero" fill-opacity="1" transform="matrix(1.00208 0 0 1 739.917 196)"/><path d="M45.1333 44.5333C45.1333 45.5643 44.2976 46.4 43.2667 46.4 42.2357 46.4 41.4 45.5643 41.4 44.5333 41.4 43.5024 42.2357 42.6667 43.2667 42.6667 44.2976 42.6667 45.1333 43.5024 45.1333 44.5333Z" fill="#0F7CD1" fill-rule="nonzero" fill-opacity="1" transform="matrix(1.00208 0 0 1 739.917 196)"/><path d="M51.7333 44.5333C51.7333 45.5643 50.8976 46.4 49.8667 46.4 48.8357 46.4 48 45.5643 48 44.5333 48 43.5024 48.8357 42.6667 49.8667 42.6667 50.8976 42.6667 51.7333 43.5024 51.7333 44.5333Z" fill="#0F7CD1" fill-rule="nonzero" fill-opacity="1" transform="matrix(1.00208 0 0 1 739.917 196)"/><path d="M58.2667 44.5333C58.2667 45.5643 57.4309 46.4 56.4 46.4 55.3691 46.4 54.5333 45.5643 54.5333 44.5333 54.5333 43.5024 55.3691 42.6667 56.4 42.6667 57.4309 42.6667 58.2667 43.5024 58.2667 44.5333Z" fill="#0F7CD1" fill-rule="nonzero" fill-opacity="1" transform="matrix(1.00208 0 0 1 739.917 196)"/><path d="M25.4667 53.6667C25.4667 54.6976 24.6309 55.5333 23.6 55.5333 22.5691 55.5333 21.7333 54.6976 21.7333 53.6667 21.7333 52.6357 22.5691 51.8 23.6 51.8 24.6309 51.8 25.4667 52.6357 25.4667 53.6667Z" fill="#0F7CD1" fill-rule="nonzero" fill-opacity="1" transform="matrix(1.00208 0 0 1 739.917 196)"/><path d="M18.9333 53.6667C18.9333 54.6976 18.0976 55.5333 17.0667 55.5333 16.0357 55.5333 15.2 54.6976 15.2 53.6667 15.2 52.6357 16.0357 51.8 17.0667 51.8 18.0976 51.8 18.9333 52.6357 18.9333 53.6667Z" fill="#0F7CD1" fill-rule="nonzero" fill-opacity="1" transform="matrix(1.00208 0 0 1 739.917 196)"/><path d="M32 53.6667C32 54.6976 31.1643 55.5333 30.1333 55.5333 29.1024 55.5333 28.2667 54.6976 28.2667 53.6667 28.2667 52.6357 29.1024 51.8 30.1333 51.8 31.1643 51.8 32 52.6357 32 53.6667Z" fill="#0F7CD1" fill-rule="nonzero" fill-opacity="1" transform="matrix(1.00208 0 0 1 739.917 196)"/><path d="M38.6 53.6667C38.6 54.6976 37.7643 55.5333 36.7333 55.5333 35.7024 55.5333 34.8667 54.6976 34.8667 53.6667 34.8667 52.6357 35.7024 51.8 36.7333 51.8 37.7643 51.8 38.6 52.6357 38.6 53.6667Z" fill="#0F7CD1" fill-rule="nonzero" fill-opacity="1" transform="matrix(1.00208 0 0 1 739.917 196)"/><path d="M51.7333 53.6667C51.7333 54.6976 50.8976 55.5333 49.8667 55.5333 48.8357 55.5333 48 54.6976 48 53.6667 48 52.6357 48.8357 51.8 49.8667 51.8 50.8976 51.8 51.7333 52.6357 51.7333 53.6667Z" fill="#0F7CD1" fill-rule="nonzero" fill-opacity="1" transform="matrix(1.00208 0 0 1 739.917 196)"/><path d="M58.2667 53.6667C58.2667 54.6976 57.4309 55.5333 56.4 55.5333 55.3691 55.5333 54.5333 54.6976 54.5333 53.6667 54.5333 52.6357 55.3691 51.8 56.4 51.8 57.4309 51.8 58.2667 52.6357 58.2667 53.6667Z" fill="#0F7CD1" fill-rule="nonzero" fill-opacity="1" transform="matrix(1.00208 0 0 1 739.917 196)"/><path d="M71.4 53.6667C71.4 54.6976 70.5643 55.5333 69.5333 55.5333 68.5024 55.5333 67.6667 54.6976 67.6667 53.6667 67.6667 52.6357 68.5024 51.8 69.5333 51.8 70.5643 51.8 71.4 52.6357 71.4 53.6667Z" fill="#0F7CD1" fill-rule="nonzero" fill-opacity="1" transform="matrix(1.00208 0 0 1 739.917 196)"/><path d="M25.4667 62.8C25.4667 63.8309 24.6309 64.6667 23.6 64.6667 22.5691 64.6667 21.7333 63.8309 21.7333 62.8 21.7333 61.7691 22.5691 60.9333 23.6 60.9333 24.6309 60.9333 25.4667 61.7691 25.4667 62.8Z" fill="#0F7CD1" fill-rule="nonzero" fill-opacity="1" transform="matrix(1.00208 0 0 1 739.917 196)"/><path d="M32 62.8C32 63.8309 31.1643 64.6667 30.1333 64.6667 29.1024 64.6667 28.2667 63.8309 28.2667 62.8 28.2667 61.7691 29.1024 60.9333 30.1333 60.9333 31.1643 60.9333 32 61.7691 32 62.8Z" fill="#0F7CD1" fill-rule="nonzero" fill-opacity="1" transform="matrix(1.00208 0 0 1 739.917 196)"/><path d="M38.6 62.8C38.6 63.8309 37.7643 64.6667 36.7333 64.6667 35.7024 64.6667 34.8667 63.8309 34.8667 62.8 34.8667 61.7691 35.7024 60.9333 36.7333 60.9333 37.7643 60.9333 38.6 61.7691 38.6 62.8Z" fill="#0F7CD1" fill-rule="nonzero" fill-opacity="1" transform="matrix(1.00208 0 0 1 739.917 196)"/><path d="M51.7333 62.8C51.7333 63.8309 50.8976 64.6667 49.8667 64.6667 48.8357 64.6667 48 63.8309 48 62.8 48 61.7691 48.8357 60.9333 49.8667 60.9333 50.8976 60.9333 51.7333 61.7691 51.7333 62.8Z" fill="#0F7CD1" fill-rule="nonzero" fill-opacity="1" transform="matrix(1.00208 0 0 1 739.917 196)"/><path d="M58.2667 62.8C58.2667 63.8309 57.4309 64.6667 56.4 64.6667 55.3691 64.6667 54.5333 63.8309 54.5333 62.8 54.5333 61.7691 55.3691 60.9333 56.4 60.9333 57.4309 60.9333 58.2667 61.7691 58.2667 62.8Z" fill="#0F7CD1" fill-rule="nonzero" fill-opacity="1" transform="matrix(1.00208 0 0 1 739.917 196)"/><path d="M64.8 62.8C64.8 63.8309 63.9643 64.6667 62.9333 64.6667 61.9024 64.6667 61.0667 63.8309 61.0667 62.8 61.0667 61.7691 61.9024 60.9333 62.9333 60.9333 63.9643 60.9333 64.8 61.7691 64.8 62.8Z" fill="#0F7CD1" fill-rule="nonzero" fill-opacity="1" transform="matrix(1.00208 0 0 1 739.917 196)"/></g></svg>