<svg width="82" height="82" xmlns="http://www.w3.org/2000/svg" xmlns:xlink="http://www.w3.org/1999/xlink" overflow="hidden"><defs><clipPath id="clip0"><rect x="1154" y="278" width="82" height="82"/></clipPath><clipPath id="clip1"><rect x="1155" y="279" width="80" height="80"/></clipPath><clipPath id="clip2"><rect x="1155" y="279" width="80" height="80"/></clipPath><clipPath id="clip3"><rect x="1155" y="278" width="80" height="82"/></clipPath></defs><g clip-path="url(#clip0)" transform="translate(-1154 -278)"><g clip-path="url(#clip1)"><g clip-path="url(#clip2)"><g clip-path="url(#clip3)"><path d="M64.4667 29.6C62.8667 28.6667 61 28.2 59.1333 28.2L44.6 28.2C38.4 28.2 33.3333 33.4 33.3333 39.7333 33.3333 41.2667 33.3333 42.2 33.8667 43.4L22.0667 43.4C19.8 43.4 17.9333 41.6667 17.9333 39.5333 17.9333 37.4 19.8 35.6667 22.0667 35.6667L31.4 35.6667 31.4 34 22.0667 34C18.8667 34 16.2667 36.4667 16.2667 39.5333 16.2667 42.6 18.8667 45.0667 22.0667 45.0667L35.9333 45.0667C39.1333 45.0667 41.7333 42.6 41.7333 39.5333 41.7333 38.8667 41.6 38.2667 41.4 37.6667L41.1333 37.2C41.8667 36.2667 43.0667 35.7333 44.4 35.7333L44.6 35.7333C45.4 37.1333 45.4 37.7333 45.4 39.6 45.4 45.0667 41.0667 49.4667 35.8 49.4667L21.1333 49.4667C19.0667 49.4667 17.0667 48.8 15.4 47.5333L14.4 48.8667C16.3333 50.3333 18.6667 51.1333 21.1333 51.1333L35.6667 51.1333C41.8667 51.1333 46.9333 45.9333 46.9333 39.6 46.9333 38 46.9333 37.0667 46.3333 35.7333L58.1333 35.7333C60.4 35.7333 62.2667 37.4667 62.2667 39.6 62.2667 41.7333 60.4 43.4667 58.1333 43.4667L48.8 43.4667 48.8 45.1333 58.1333 45.1333C61.3333 45.1333 63.9333 42.6667 63.9333 39.6 63.9333 36.5333 61.3333 34.0667 58.1333 34.0667L44.2667 34.0667C41.0667 34.0667 38.4667 36.5333 38.4667 39.6 38.4667 40.1333 38.6667 40.9333 38.8 41.6L39 42 39.0667 41.9333C38.3333 42.8667 37.1333 43.4 35.8667 43.4L35.6667 43.4C35 42.1333 35 41.4667 35 39.7333 35 34.2667 39.3333 29.8667 44.6 29.8667L59.1333 29.8667C60.7333 29.8667 62.2667 30.2667 63.6667 31.0667 63.8667 31.2 64.0667 31.2667 64.2 31.4L65.1333 30C64.9333 29.8667 64.7333 29.7333 64.4667 29.6" fill="#1D428A" fill-rule="nonzero" fill-opacity="1" transform="matrix(1 0 0 1.00208 1155 278.917)"/><path d="M21.1333 29.7333 35.1333 29.7333 35.1333 28.0667 21.1333 28.0667C15.7333 28.0667 11.2 32 10.1333 37.2 10 36.4667 10 35.6667 10 34.9333 10 27.6 14.6 21.1333 21.4 18.9333L20.8667 17.3333C13.3333 19.7333 8.26667 26.8 8.26667 34.9333 8.26667 37.6 8.86667 40.2667 9.93333 42.6L7.86667 44 13.6667 46.8667 13.2667 40.4 11.7333 41.4C11.6 40.8 11.5333 40.2 11.5333 39.6 11.5333 34.2 15.8667 29.7333 21.1333 29.7333Z" fill="#1D428A" fill-rule="nonzero" fill-opacity="1" transform="matrix(1 0 0 1.00208 1155 278.917)"/><path d="M42.2 15.3333 43 15.3333 43 18.2667 42.2 18.2667Z" fill="#1D428A" fill-rule="nonzero" fill-opacity="1" transform="matrix(1 0 0 1.00208 1155 278.917)"/><path d="M39.2 15.3333 40 15.3333 40 18.2667 39.2 18.2667Z" fill="#1D428A" fill-rule="nonzero" fill-opacity="1" transform="matrix(1 0 0 1.00208 1155 278.917)"/><path d="M36.2667 15.3333 37.0667 15.3333 37.0667 18.2667 36.2667 18.2667Z" fill="#1D428A" fill-rule="nonzero" fill-opacity="1" transform="matrix(1 0 0 1.00208 1155 278.917)"/><path d="M33.2667 15.3333 34.0667 15.3333 34.0667 18.2667 33.2667 18.2667Z" fill="#1D428A" fill-rule="nonzero" fill-opacity="1" transform="matrix(1 0 0 1.00208 1155 278.917)"/><path d="M46.7333 12.0667 23.4667 12.0667 23.4667 21.5333 46.6667 21.5333 46.6667 12.0667ZM45.0667 19.8667 25.1333 19.8667 25.1333 13.7333 45 13.7333 45 19.8667Z" fill="#1D428A" fill-rule="nonzero" fill-opacity="1" transform="matrix(1 0 0 1.00208 1155 278.917)"/><path d="M29.6 17.6667C30.0667 17.2 30 16.4667 29.5333 16.0667 29.0667 15.6 28.3333 15.6 27.9333 16 27.4667 16.4667 27.5333 17.2 28 17.6 28.4667 18 29.2 18.0667 29.6 17.6667Z" fill="#1D428A" fill-rule="nonzero" fill-opacity="1" transform="matrix(1 0 0 1.00208 1155 278.917)"/><path d="M70 36.7333 71.9333 35.4 66.1333 32.5333 66.5333 39 68.3333 37.8C68.4 38 68.5333 38.2667 68.6 38.4667 68.6667 38.9333 68.6667 39.3333 68.6667 39.8 68.6667 45.2667 64.3333 49.6667 59.0667 49.6667L45 49.6667 45 51.3333 59.1333 51.3333C64 51.3333 68.1333 48.1333 69.7333 43.7333 69.7333 44 69.7333 44.2667 69.7333 44.5333 69.7333 51.8667 65.1333 58.3333 58.3333 60.5333L58.8667 62.1333C66.4 59.7333 71.4 52.6667 71.4 44.5333 71.4 42.2667 71 40.1333 70.2667 38.0667 70.2 37.6 70.1333 37.1333 70 36.7333Z" fill="#1D428A" fill-rule="nonzero" fill-opacity="1" transform="matrix(1 0 0 1.00208 1155 278.917)"/><path d="M36.7333 61.1333 37.5333 61.1333 37.5333 64.0667 36.7333 64.0667Z" fill="#1D428A" fill-rule="nonzero" fill-opacity="1" transform="matrix(1 0 0 1.00208 1155 278.917)"/><path d="M39.6667 61.1333 40.4667 61.1333 40.4667 64.0667 39.6667 64.0667Z" fill="#1D428A" fill-rule="nonzero" fill-opacity="1" transform="matrix(1 0 0 1.00208 1155 278.917)"/><path d="M42.6 61.1333 43.4 61.1333 43.4 64.0667 42.6 64.0667Z" fill="#1D428A" fill-rule="nonzero" fill-opacity="1" transform="matrix(1 0 0 1.00208 1155 278.917)"/><path d="M45.6 61.1333 46.4 61.1333 46.4 64.0667 45.6 64.0667Z" fill="#1D428A" fill-rule="nonzero" fill-opacity="1" transform="matrix(1 0 0 1.00208 1155 278.917)"/><path d="M33 67.3333 56.2 67.3333 56.2 57.8667 33 57.8667 33 67.3333ZM34.6667 59.5333 54.5333 59.5333 54.5333 65.6667 34.6667 65.6667 34.6667 59.5333Z" fill="#1D428A" fill-rule="nonzero" fill-opacity="1" transform="matrix(1 0 0 1.00208 1155 278.917)"/><path d="M50.0667 61.8C49.6 62.2667 49.6667 63 50.1333 63.4 50.6 63.8 51.3333 63.8667 51.7333 63.4667 52.2 63 52.1333 62.2667 51.6667 61.8667 51.2 61.4667 50.5333 61.3333 50.0667 61.8Z" fill="#1D428A" fill-rule="nonzero" fill-opacity="1" transform="matrix(1 0 0 1.00208 1155 278.917)"/></g></g></g></g></svg>