<svg width="81" height="80" xmlns="http://www.w3.org/2000/svg" xmlns:xlink="http://www.w3.org/1999/xlink" overflow="hidden"><defs><clipPath id="clip0"><rect x="600" y="196" width="81" height="80"/></clipPath><clipPath id="clip1"><rect x="601" y="196" width="80" height="80"/></clipPath><clipPath id="clip2"><rect x="601" y="196" width="80" height="80"/></clipPath><clipPath id="clip3"><rect x="601" y="195" width="80" height="82"/></clipPath></defs><g clip-path="url(#clip0)" transform="translate(-600 -196)"><g clip-path="url(#clip1)"><g clip-path="url(#clip2)"><g clip-path="url(#clip3)"><path d="M67.1867 29.1067C65.1792 29.0861 63.4333 30.4783 63.0067 32.44L54.2467 32.44 54.2467 14.6667C56.1241 14.2064 57.2729 12.3114 56.8127 10.434 56.3525 8.5566 54.4574 7.40773 52.58 7.868 50.7026 8.3282 49.5537 10.2233 50.014 12.1007 50.3245 13.3673 51.3134 14.3562 52.58 14.6667L52.58 34.1267 63.02 34.1267C63.4471 36.4328 65.6629 37.9561 67.9687 37.529 70.2753 37.1019 71.7987 34.8861 71.3713 32.58 70.998 30.5637 69.2373 29.1023 67.1867 29.1067ZM67.1867 35.7733C65.8107 35.7181 64.7401 34.5579 64.7953 33.182 64.8506 31.8061 66.0107 30.7355 67.3867 30.7907 68.7253 30.8444 69.7827 31.9467 69.78 33.2867 69.74 34.6817 68.582 35.7832 67.1867 35.7533Z" fill="#172F77" fill-rule="nonzero" fill-opacity="1" transform="matrix(1 0 0 1.00208 601 195.917)"/><path d="M33.4667 54.3267 33.4667 37.26 23.22 37.26C22.8767 34.9883 20.7567 33.4251 18.485 33.7684 16.2133 34.1117 14.6501 36.2317 14.9935 38.5034 15.3368 40.7751 17.4567 42.3383 19.7284 41.995 21.3753 41.7461 22.7149 40.5389 23.1333 38.9267L31.8 38.9267 31.8 54.26C29.8906 54.6446 28.6545 56.5042 29.0391 58.4136 29.4237 60.323 31.2834 61.5591 33.1927 61.1745 35.1021 60.7899 36.3382 58.9302 35.9536 57.0209 35.6933 55.7286 34.734 54.6893 33.4667 54.3267ZM19.0133 40.3733C17.6374 40.3181 16.5668 39.1579 16.622 37.782 16.6773 36.4061 17.8374 35.3355 19.2133 35.3907 20.5522 35.4444 21.6092 36.5467 21.6067 37.8867 21.5739 39.288 20.4148 40.3994 19.0133 40.3733Z" fill="#1D428A" fill-rule="nonzero" fill-opacity="1" transform="matrix(1 0 0 1.00208 601 195.917)"/><path d="M47.68 51.4933 47.68 19.1667 36.3467 19.1667C35.8864 16.9157 33.6886 15.4641 31.4377 15.9243 29.1867 16.3845 27.7351 18.5824 28.1953 20.8333 28.6555 23.0843 30.8534 24.5359 33.1043 24.0757 34.7369 23.7419 36.0129 22.466 36.3467 20.8333L46 20.8333 46 51.58C44.5199 51.9781 43.4866 53.314 43.4733 54.8467 43.4153 56.7825 44.9375 58.3988 46.8733 58.4569 48.8091 58.5149 50.4255 56.9927 50.4835 55.0569 50.5348 53.3467 49.3444 51.8491 47.6667 51.5133ZM32.1667 22.5267C30.7907 22.4715 29.7201 21.3113 29.7753 19.9353 29.8306 18.5594 30.9907 17.4888 32.3667 17.544 33.7029 17.5977 34.7589 18.696 34.76 20.0333 34.7272 21.4357 33.5693 22.549 32.1667 22.5267Z" fill="#1D428A" fill-rule="nonzero" fill-opacity="1" transform="matrix(1 0 0 1.00208 601 195.917)"/><path d="M67.1867 43.3333C65.1842 43.3191 63.4457 44.7099 63.02 46.6667L52.58 46.6667 52.58 64.56C51.0217 64.9119 49.9146 66.2957 49.9133 67.8933 49.9133 69.826 51.4803 71.3933 53.4133 71.3933 55.3463 71.3933 56.9133 69.826 56.9133 67.8933 56.9121 66.2957 55.805 64.9119 54.2467 64.56L54.2467 48.3267 63.0067 48.3267C63.4153 50.6399 65.6219 52.1838 67.9353 51.7751 70.2487 51.3664 71.792 49.1599 71.3833 46.8467 71.024 44.8114 69.2533 43.3292 67.1867 43.3333ZM67.1867 50C65.8107 49.9448 64.7401 48.7846 64.7953 47.4087 64.8505 46.0327 66.0107 44.9621 67.3867 45.0173 68.7227 45.071 69.7787 46.1693 69.78 47.5067 69.7507 48.9106 68.5907 50.026 67.1867 50Z" fill="#1D428A" fill-rule="nonzero" fill-opacity="1" transform="matrix(1 0 0 1.00208 601 195.917)"/><path d="M41.6867 61.4933 41.6867 28.0333 15.02 28.0333C14.6706 26.1584 12.8674 24.9217 10.9925 25.2711 9.11753 25.6205 7.8808 27.4237 8.2302 29.2986 8.5796 31.1735 10.3828 32.4103 12.2577 32.0609 13.5135 31.8269 14.5375 30.9187 14.92 29.7L40 29.7 40 61.44C38.0937 61.8397 36.8724 63.7091 37.2721 65.6153 37.6719 67.5213 39.5412 68.7427 41.4475 68.3433 43.3537 67.9433 44.5751 66.0741 44.1753 64.1679 43.9048 62.8775 42.9371 61.8459 41.6667 61.4933Z" fill="#1D428A" fill-rule="nonzero" fill-opacity="1" transform="matrix(1 0 0 1.00208 601 195.917)"/></g></g></g></g></svg>