<svg width="80" height="82" xmlns="http://www.w3.org/2000/svg" xmlns:xlink="http://www.w3.org/1999/xlink" overflow="hidden"><defs><clipPath id="clip0"><rect x="1157" y="414" width="80" height="82"/></clipPath><clipPath id="clip1"><rect x="1158" y="415" width="79" height="80"/></clipPath><clipPath id="clip2"><rect x="1158" y="415" width="79" height="80"/></clipPath><clipPath id="clip3"><rect x="1158" y="414" width="79" height="82"/></clipPath></defs><g clip-path="url(#clip0)" transform="translate(-1157 -414)"><g clip-path="url(#clip1)"><g clip-path="url(#clip2)"><g clip-path="url(#clip3)"><path d="M55.4975 63.2658 54.0492 59.7767C53.8517 59.3158 53.5225 58.9867 53.0617 58.7892 52.6008 58.5917 52.14 58.5917 51.6792 58.7892L46.5442 60.8958 33.3775 27.7158 33.3775 32.3242 45.3592 62.41C45.425 62.6075 45.6225 62.805 45.82 62.8708 46.0175 62.9367 46.2808 62.9367 46.4783 62.8708L52.4033 60.435C52.4033 60.435 52.535 60.5008 52.535 60.5008L53.9833 63.99 54.7733 63.6608 53.9175 64.1217 43.6475 68.335C43.6475 68.335 43.5817 68.335 43.5817 68.335L33.3775 41.7383C33.2458 41.4092 32.9167 41.2117 32.5875 41.2117 32.5875 41.2117 32.5875 41.2117 32.5875 41.2117 32.2583 41.2117 31.9292 41.4092 31.7975 41.7383L21.4617 68.5983C21.4617 68.6642 21.3958 68.6642 21.33 68.6642L17.8408 67.3475 17.5117 68.1375 17.775 67.2158 30.2833 34.8258C30.3492 34.6283 30.3492 34.365 30.2833 34.1675L22.515 15.4708C22.4492 15.2733 22.2517 15.0758 22.0542 15.01 21.8567 14.9442 21.5933 14.9442 21.3958 15.01L15.2075 17.5775C15.1417 17.5775 15.1417 17.5775 15.0758 17.5117L13.6275 14.0225 12.8375 14.3517 13.6933 13.8908 24.2267 9.54583 23.8975 8.75583 24.2925 9.61167 27.255 17.0508 27.255 16.985C27.1892 15.6025 27.5183 14.6808 27.9133 14.0225L25.8725 8.95333C25.675 8.4925 25.3458 8.16333 24.885 7.96583 24.4242 7.76833 23.9633 7.76833 23.5025 7.96583L12.9692 12.3108C12.5083 12.5083 12.1792 12.8375 11.9817 13.2983 11.7842 13.7592 11.7842 14.22 11.9817 14.6808L13.43 18.17C13.6275 18.6308 13.9567 18.96 14.4175 19.1575 14.8783 19.355 15.3392 19.355 15.8 19.1575L21.1983 16.9192 28.5058 34.4967 16.1292 66.5575C15.9317 67.0183 15.9975 67.4792 16.195 67.94 16.3925 68.4008 16.7217 68.73 17.1825 68.8617L20.6717 70.1783C20.8692 70.2442 21.0667 70.31 21.33 70.31 22.0542 70.31 22.7125 69.8492 22.9758 69.125L32.5217 44.3058 41.87 68.7958C42.0675 69.2567 42.3967 69.5858 42.8575 69.7833 43.3183 69.9808 43.7792 69.9808 44.24 69.7833L54.51 65.57C54.9708 65.3725 55.3 65.0433 55.4975 64.5825 55.695 64.1875 55.695 63.7267 55.4975 63.2658Z" fill="#67B519" fill-rule="nonzero" fill-opacity="1" transform="matrix(1 0 0 1.01477 1158 414.917)"/><path d="M31.7317 18.1042 34.365 18.1042 34.365 19.9475 31.7317 19.9475 31.7317 29.2958 29.625 29.2958 29.625 19.8817 28.5058 19.8817 28.5058 18.0383 29.625 18.0383 29.625 16.7217C29.625 15.8 29.8883 15.0758 30.415 14.5492 30.9417 13.9567 31.6658 13.6933 32.5217 13.6933 32.9167 13.6933 33.3117 13.7592 33.7067 13.8908 34.1017 14.0225 34.4308 14.22 34.76 14.4833L33.97 15.9317C33.8383 15.8 33.7067 15.7342 33.5092 15.6683 33.3117 15.6025 33.0483 15.5367 32.8508 15.5367 32.5217 15.5367 32.2583 15.6683 32.0608 15.9317 31.8633 16.195 31.7317 16.5242 31.7317 16.9192L31.7317 18.1042Z" fill="#67B519" fill-rule="nonzero" fill-opacity="1" transform="matrix(1 0 0 1.01477 1158 414.917)"/><path d="M38.2492 28.7692C37.4592 27.1892 37.0642 25.4117 37.0642 23.5683 37.0642 21.725 37.4592 19.9475 38.2492 18.3675 39.0392 16.7875 40.1583 15.3392 41.6725 14.1542L42.7917 15.3392C41.6067 16.59 40.685 17.8408 40.1583 19.1575 39.5658 20.4742 39.3025 21.9225 39.3025 23.5683 39.3025 25.2142 39.5658 26.7283 40.1583 27.9792 40.7508 29.2958 41.6067 30.5467 42.7917 31.7317L41.6725 32.9167C40.2242 31.7317 39.105 30.3492 38.2492 28.7692Z" fill="#67B519" fill-rule="nonzero" fill-opacity="1" transform="matrix(1 0 0 1.01477 1158 414.917)"/><path d="M52.2058 29.23 49.1775 25.1483 46.0833 29.23 43.7133 29.23 47.9925 23.5025 43.9108 18.0383 46.3467 18.0383 49.1775 21.8567 52.0742 18.0383 54.4442 18.0383 50.3625 23.5025 54.6417 29.23 52.2058 29.23Z" fill="#67B519" fill-rule="nonzero" fill-opacity="1" transform="matrix(1 0 0 1.01477 1158 414.917)"/><path d="M56.0242 31.7317C57.2092 30.4808 58.1308 29.23 58.7233 27.9133 59.3158 26.5967 59.5792 25.1483 59.5792 23.5025 59.5792 21.8567 59.3158 20.3425 58.7233 19.0917 58.1308 17.775 57.275 16.5242 56.0242 15.2733L57.1433 14.0883C58.6575 15.2733 59.7767 16.6558 60.5667 18.3017 61.3567 19.8817 61.7517 21.6592 61.7517 23.5025 61.7517 25.3458 61.3567 27.1233 60.5667 28.7033 59.7767 30.2833 58.5917 31.7317 57.1433 32.9167L56.0242 31.7317Z" fill="#67B519" fill-rule="nonzero" fill-opacity="1" transform="matrix(1 0 0 1.01477 1158 414.917)"/></g></g></g></g></svg>