<svg width="82" height="82" xmlns="http://www.w3.org/2000/svg" xmlns:xlink="http://www.w3.org/1999/xlink" overflow="hidden"><defs><clipPath id="clip0"><rect x="462" y="66" width="82" height="82"/></clipPath><clipPath id="clip1"><rect x="463" y="67" width="80" height="80"/></clipPath><clipPath id="clip2"><rect x="463" y="67" width="80" height="80"/></clipPath><clipPath id="clip3"><rect x="463" y="67" width="80" height="80"/></clipPath></defs><g clip-path="url(#clip0)" transform="translate(-462 -66)"><g clip-path="url(#clip1)"><g clip-path="url(#clip2)"><g clip-path="url(#clip3)"><path d="M523.867 128.4C523.6 128.4 523.4 128.333 523.2 128.133L519 124.4C518.733 124.133 518.6 123.8 518.667 123.467L519.8 118C519.867 117.667 520.133 117.333 520.467 117.267L525.8 115.533C526.133 115.4 526.533 115.533 526.8 115.733L531 119.467C531.267 119.733 531.4 120.067 531.333 120.4L530.2 125.867C530.133 126.2 529.867 126.533 529.533 126.6L524.2 128.333C524.067 128.4 524 128.4 523.867 128.4ZM520.8 123.267 524.133 126.267 528.4 124.867 529.333 120.467 526 117.467 521.733 118.867 520.8 123.267Z" fill="#E56207" fill-rule="nonzero" fill-opacity="1"/><path d="M515.284 114.514 516.621 113.026 521.482 117.391 520.146 118.879Z" fill="#E56207" fill-rule="nonzero" fill-opacity="1"/><path d="M519 112.267 517.467 114 516.333 115.2 514.8 116.933 512.867 111Z" fill="#E56207" fill-rule="nonzero" fill-opacity="1"/><path d="M502.4 102.667C502.2 102.667 502.067 102.6 501.867 102.533L494.733 98.4C494.4 98.2 494.2 97.8667 494.2 97.5333L494.2 89.3333C494.2 89 494.4 88.6667 494.733 88.4667L501.867 84.3333C502.2 84.1333 502.533 84.1333 502.867 84.3333L510 88.4667C510.333 88.6667 510.533 89 510.533 89.3333L510.533 97.5333C510.533 97.8667 510.333 98.2 510 98.4L502.867 102.533C502.733 102.6 502.6 102.667 502.4 102.667ZM496.267 97 502.4 100.533 508.533 97 508.533 89.9333 502.4 86.4 496.267 89.9333 496.267 97Z" fill="#E56207" fill-rule="nonzero" fill-opacity="1"/><path d="M502.4 111.467C502.2 111.467 502.067 111.4 501.867 111.333L487.2 102.8C486.867 102.6 486.667 102.267 486.667 101.933L486.667 84.9333C486.667 84.6 486.867 84.2667 487.2 84.0667L501.933 75.6C502.267 75.4 502.6 75.4 502.933 75.6L517.667 84.0667C518 84.2667 518.2 84.6 518.2 84.9333L518.2 101.933C518.2 102.267 518 102.6 517.667 102.8L502.933 111.333C502.733 111.4 502.6 111.467 502.4 111.467ZM488.667 101.4 502.4 109.333 516.133 101.4 516.133 85.5333 502.4 77.6 488.667 85.5333 488.667 101.4Z" fill="#E56207" fill-rule="nonzero" fill-opacity="1"/><path d="M502.4 138.6C502.2 138.6 502.067 138.533 501.867 138.467L497 135.667C496.667 135.467 496.467 135.133 496.467 134.8L496.467 129.2C496.467 128.867 496.667 128.533 497 128.333L501.867 125.533C502.2 125.333 502.533 125.333 502.867 125.533L507.733 128.333C508.067 128.533 508.267 128.867 508.267 129.2L508.267 134.8C508.267 135.133 508.067 135.467 507.733 135.667L502.867 138.467C502.733 138.6 502.6 138.6 502.4 138.6ZM498.533 134.2 502.4 136.4 506.267 134.2 506.267 129.733 502.4 127.533 498.533 129.733 498.533 134.2Z" fill="#E56207" fill-rule="nonzero" fill-opacity="1"/><path d="M501.4 119.8 503.4 119.8 503.4 126.333 501.4 126.333Z" fill="#E56207" fill-rule="nonzero" fill-opacity="1"/><path d="M499.267 121.067 501.6 121.067 503.267 121.067 505.533 121.067 502.4 115.667Z" fill="#E56207" fill-rule="nonzero" fill-opacity="1"/><path d="M480.933 128.4C480.8 128.4 480.733 128.4 480.6 128.333L475.267 126.6C474.933 126.467 474.667 126.2 474.6 125.867L473.467 120.4C473.4 120.067 473.533 119.667 473.8 119.467L478 115.733C478.267 115.467 478.667 115.4 479 115.533L484.333 117.267C484.667 117.4 484.933 117.667 485 118L486.133 123.467C486.2 123.8 486.067 124.2 485.8 124.4L481.6 128.133C481.4 128.333 481.2 128.4 480.933 128.4ZM476.467 124.867 480.733 126.267 484.067 123.267 483.133 118.867 478.867 117.467 475.533 120.467 476.467 124.867Z" fill="#E56207" fill-rule="nonzero" fill-opacity="1"/><path d="M483.279 117.373 488.141 113.009 489.477 114.498 484.615 118.862Z" fill="#E56207" fill-rule="nonzero" fill-opacity="1"/><path d="M485.8 112.267 487.333 114 488.467 115.2 490 116.933 491.933 111Z" fill="#E56207" fill-rule="nonzero" fill-opacity="1"/></g></g></g></g></svg>