<svg id="artwork" xmlns="http://www.w3.org/2000/svg" xmlns:xlink="http://www.w3.org/1999/xlink" viewBox="0 0 150 150"><title>Event Broker Appliance OSS Identity </title>
<metadata><?xpacket begin="﻿" id="W5M0MpCehiHzreSzNTczkc9d"?>
<x:xmpmeta xmlns:x="adobe:ns:meta/" x:xmptk="Adobe XMP Core 7.1-c000 79.4d2f597, 2021/09/01-20:51:22        ">
   <rdf:RDF xmlns:rdf="http://www.w3.org/1999/02/22-rdf-syntax-ns#">
      <rdf:Description rdf:about=""
            xmlns:lr="http://ns.adobe.com/lightroom/1.0/"
            xmlns:dc="http://purl.org/dc/elements/1.1/"
            xmlns:xmp="http://ns.adobe.com/xap/1.0/"
            xmlns:xmpMM="http://ns.adobe.com/xap/1.0/mm/"
            xmlns:stEvt="http://ns.adobe.com/xap/1.0/sType/ResourceEvent#">
         <lr:hierarchicalSubject>
            <rdf:Bag>
               <rdf:li>open source identity</rdf:li>
               <rdf:li>open source identity|Event Broker Appliance</rdf:li>
               <rdf:li>open source identity|1173308</rdf:li>
               <rdf:li>open source identity|oss</rdf:li>
            </rdf:Bag>
         </lr:hierarchicalSubject>
         <dc:subject>
            <rdf:Bag>
               <rdf:li>open source identity</rdf:li>
               <rdf:li>Event Broker Appliance</rdf:li>
               <rdf:li>1173308</rdf:li>
               <rdf:li>oss</rdf:li>
            </rdf:Bag>
         </dc:subject>
         <dc:title>
            <rdf:Alt>
               <rdf:li xml:lang="x-default">Event Broker Appliance OSS Identity </rdf:li>
            </rdf:Alt>
         </dc:title>
         <xmp:MetadataDate>2021-12-10T10:19:49-08:00</xmp:MetadataDate>
         <xmpMM:InstanceID>xmp.iid:e0848e4d-324f-4f98-ba84-57345f888e91</xmpMM:InstanceID>
         <xmpMM:DocumentID>xmp.did:56429cad-9025-438e-967f-522b73135340</xmpMM:DocumentID>
         <xmpMM:OriginalDocumentID>xmp.did:56429cad-9025-438e-967f-522b73135340</xmpMM:OriginalDocumentID>
         <xmpMM:History>
            <rdf:Seq>
               <rdf:li>
                  <rdf:Description>
                     <stEvt:action>saved</stEvt:action>
                     <stEvt:instanceID>xmp.iid:56429cad-9025-438e-967f-522b73135340</stEvt:instanceID>
                     <stEvt:when>2021-12-10T10:18:25-08:00</stEvt:when>
                     <stEvt:softwareAgent>Adobe Bridge 2022 (Macintosh)</stEvt:softwareAgent>
                     <stEvt:changed>/metadata</stEvt:changed>
                  </rdf:Description>
               </rdf:li>
               <rdf:li>
                  <rdf:Description>
                     <stEvt:action>saved</stEvt:action>
                     <stEvt:instanceID>xmp.iid:e0848e4d-324f-4f98-ba84-57345f888e91</stEvt:instanceID>
                     <stEvt:when>2021-12-10T10:19:49-08:00</stEvt:when>
                     <stEvt:softwareAgent>Adobe Bridge 2022 (Macintosh)</stEvt:softwareAgent>
                     <stEvt:changed>/metadata</stEvt:changed>
                  </rdf:Description>
               </rdf:li>
            </rdf:Seq>
         </xmpMM:History>
      </rdf:Description>
   </rdf:RDF>
</x:xmpmeta>
                                                                                                    
                                                                                                    
                                                                                                    
                                                                                                    
                                                                                                    
                                                                                                    
                                                                                                    
                                                                                                    
                                                                                                    
                                                                                                    
                           
<?xpacket end="w"?></metadata>
<defs><style>.cls-1{fill:#fff;}.cls-2{fill:#1e4488;}.cls-3{fill:#218fcf;}.cls-4{fill:#717074;}.cls-5{fill:#79459b;}.cls-6{fill:#78be43;}.cls-7{fill:#ec7700;}.cls-8{fill:url(#radial-gradient);}</style><radialGradient id="radial-gradient" cx="75.49" cy="77.91" r="17.5" gradientUnits="userSpaceOnUse"><stop offset="0.13" stop-color="#fff"/><stop offset="0.2" stop-color="#d1f2f6"/><stop offset="0.31" stop-color="#83dce7"/><stop offset="0.4" stop-color="#4acddc"/><stop offset="0.47" stop-color="#27c3d6"/><stop offset="0.51" stop-color="#1abfd3"/><stop offset="0.72" stop-color="#1ea3d1"/><stop offset="0.84" stop-color="#218fcf"/></radialGradient></defs><circle class="cls-1" cx="75" cy="78.15" r="43.5"/><circle class="cls-2" cx="47.66" cy="50.66" r="11.01"/><path class="cls-3" d="M67.25,66.52,57.07,56.34a10.89,10.89,0,0,0,1.6-5.68,11,11,0,1,0-6,9.78L63,70.76ZM40.65,50.66a7,7,0,1,1,7,7A7,7,0,0,1,40.65,50.66Z"/><circle class="cls-2" cx="112.81" cy="78.3" r="11.01"/><path class="cls-3" d="M112.81,67.29a11,11,0,0,0-10.68,8.36H29.86v6h72.46a11,11,0,1,0,10.49-14.36Zm0,18a7,7,0,1,1,7-7A7,7,0,0,1,112.81,85.31Z"/><path class="cls-4" d="M75,25.65a52.5,52.5,0,1,0,52.5,52.5A52.51,52.51,0,0,0,75,25.65Zm0,96a43.5,43.5,0,1,1,43.5-43.5A43.5,43.5,0,0,1,75,121.65Z"/><circle class="cls-5" cx="75.49" cy="30.36" r="11.01"/><circle class="cls-6" cx="111.83" cy="115.26" r="11.01"/><circle class="cls-7" cx="53.26" cy="106.19" r="11.01"/><circle class="cls-8" cx="75.49" cy="77.91" r="17.5"/><path class="cls-2" d="M72.17,40.86v3.19h6.64V40.86a11,11,0,1,0-6.64,0Zm3.32-17.51a7,7,0,1,1-7,7A7,7,0,0,1,75.49,23.35Z"/><rect class="cls-2" x="72.17" y="46.26" width="6.64" height="3.32"/><rect class="cls-2" x="72.17" y="51.79" width="6.64" height="3.32"/><path class="cls-2" d="M64.07,97.52l-5.14-4.19-2,2.48a11,11,0,1,0,5.32,4ZM53.26,113.2a7,7,0,1,1,7-7A7,7,0,0,1,53.26,113.2Z"/><path class="cls-2" d="M91.3,90l-1.72-1.75A17.46,17.46,0,0,0,78.22,60.64h.59V57.32H72.17v3.32h.59A17.46,17.46,0,0,0,62.22,89.29l-1.93,2.37,5.15,4.19,2-2.43a17.37,17.37,0,0,0,17.28-.65l1.86,1.89Zm-15.81.25A12.35,12.35,0,1,1,87.85,77.91,12.36,12.36,0,0,1,75.49,90.26Z"/><rect class="cls-2" x="96.03" y="101.29" width="6.64" height="3.3" transform="translate(-43.67 99.12) rotate(-44.49)"/><rect class="cls-2" x="88.31" y="93.44" width="6.64" height="3.3" transform="translate(-40.37 91.46) rotate(-44.49)"/><rect class="cls-2" x="92.17" y="97.36" width="6.64" height="3.3" transform="translate(-42.02 95.29) rotate(-44.49)"/><path class="cls-2" d="M111.83,104.25a10.9,10.9,0,0,0-5.24,1.33l-2.17-2.21L99.68,108l2.3,2.34a11,11,0,1,0,9.85-6.11Zm0,18a7,7,0,1,1,7-7A7,7,0,0,1,111.83,122.27Z"/></svg>