<svg id="artwork" xmlns="http://www.w3.org/2000/svg" xmlns:xlink="http://www.w3.org/1999/xlink" viewBox="0 0 660 160"><title>Event Broker Appliance OSS Identity </title>
<metadata><?xpacket begin="﻿" id="W5M0MpCehiHzreSzNTczkc9d"?>
<x:xmpmeta xmlns:x="adobe:ns:meta/" x:xmptk="Adobe XMP Core 7.1-c000 79.4d2f597, 2021/09/01-20:51:22        ">
   <rdf:RDF xmlns:rdf="http://www.w3.org/1999/02/22-rdf-syntax-ns#">
      <rdf:Description rdf:about=""
            xmlns:lr="http://ns.adobe.com/lightroom/1.0/"
            xmlns:dc="http://purl.org/dc/elements/1.1/"
            xmlns:xmp="http://ns.adobe.com/xap/1.0/"
            xmlns:xmpMM="http://ns.adobe.com/xap/1.0/mm/"
            xmlns:stEvt="http://ns.adobe.com/xap/1.0/sType/ResourceEvent#">
         <lr:hierarchicalSubject>
            <rdf:Bag>
               <rdf:li>open source identity</rdf:li>
               <rdf:li>open source identity|Event Broker Appliance</rdf:li>
               <rdf:li>open source identity|1173308</rdf:li>
               <rdf:li>open source identity|oss</rdf:li>
            </rdf:Bag>
         </lr:hierarchicalSubject>
         <dc:subject>
            <rdf:Bag>
               <rdf:li>open source identity</rdf:li>
               <rdf:li>Event Broker Appliance</rdf:li>
               <rdf:li>1173308</rdf:li>
               <rdf:li>oss</rdf:li>
            </rdf:Bag>
         </dc:subject>
         <dc:title>
            <rdf:Alt>
               <rdf:li xml:lang="x-default">Event Broker Appliance OSS Identity </rdf:li>
            </rdf:Alt>
         </dc:title>
         <xmp:MetadataDate>2021-12-10T10:19:49-08:00</xmp:MetadataDate>
         <xmpMM:InstanceID>xmp.iid:55887c4d-7de6-42f8-9dd8-403875374482</xmpMM:InstanceID>
         <xmpMM:DocumentID>xmp.did:5bc8e15f-ee66-47d7-b929-d97263c842a6</xmpMM:DocumentID>
         <xmpMM:OriginalDocumentID>xmp.did:5bc8e15f-ee66-47d7-b929-d97263c842a6</xmpMM:OriginalDocumentID>
         <xmpMM:History>
            <rdf:Seq>
               <rdf:li>
                  <rdf:Description>
                     <stEvt:action>saved</stEvt:action>
                     <stEvt:instanceID>xmp.iid:5bc8e15f-ee66-47d7-b929-d97263c842a6</stEvt:instanceID>
                     <stEvt:when>2021-12-10T10:18:25-08:00</stEvt:when>
                     <stEvt:softwareAgent>Adobe Bridge 2022 (Macintosh)</stEvt:softwareAgent>
                     <stEvt:changed>/metadata</stEvt:changed>
                  </rdf:Description>
               </rdf:li>
               <rdf:li>
                  <rdf:Description>
                     <stEvt:action>saved</stEvt:action>
                     <stEvt:instanceID>xmp.iid:55887c4d-7de6-42f8-9dd8-403875374482</stEvt:instanceID>
                     <stEvt:when>2021-12-10T10:19:49-08:00</stEvt:when>
                     <stEvt:softwareAgent>Adobe Bridge 2022 (Macintosh)</stEvt:softwareAgent>
                     <stEvt:changed>/metadata</stEvt:changed>
                  </rdf:Description>
               </rdf:li>
            </rdf:Seq>
         </xmpMM:History>
      </rdf:Description>
   </rdf:RDF>
</x:xmpmeta>
                                                                                                    
                                                                                                    
                                                                                                    
                                                                                                    
                                                                                                    
                                                                                                    
                                                                                                    
                                                                                                    
                                                                                                    
                                                                                                    
                           
<?xpacket end="w"?></metadata>
<defs><style>.cls-1{fill:#717074;}.cls-2{fill:#fff;}.cls-3{fill:#1e4488;}.cls-4{fill:#218fcf;}.cls-5{fill:#79459b;}.cls-6{fill:#78be43;}.cls-7{fill:#ec7700;}.cls-8{fill:url(#radial-gradient);}</style><radialGradient id="radial-gradient" cx="92.99" cy="80.42" r="17.5" gradientUnits="userSpaceOnUse"><stop offset="0.13" stop-color="#fff"/><stop offset="0.2" stop-color="#d1f2f6"/><stop offset="0.31" stop-color="#83dce7"/><stop offset="0.4" stop-color="#4acddc"/><stop offset="0.47" stop-color="#27c3d6"/><stop offset="0.51" stop-color="#1abfd3"/><stop offset="0.72" stop-color="#1ea3d1"/><stop offset="0.84" stop-color="#218fcf"/></radialGradient></defs><path class="cls-1" d="M176.62,32.4V46H199V50.4H176.62V64.74h24.84v4.44H171.88V28h29.58V32.4Z"/><path class="cls-1" d="M246.28,28,228.1,69.18H223L204.82,28h5.1l15.66,35.46L241.18,28Z"/><path class="cls-1" d="M257.56,32.4V46h22.38V50.4H257.56V64.74H282.4v4.44H252.82V28H282.4V32.4Z"/><path class="cls-1" d="M290.8,28h4.68L321,61.5V28h4.68V69.18H321L295.48,35.64V69.18H290.8Z"/><path class="cls-1" d="M346.12,32.4H332.26V28h32.4V32.4H350.8V69.18h-4.68Z"/><path class="cls-1" d="M386.2,28h18.9A12.73,12.73,0,0,1,411,29.28a9.77,9.77,0,0,1,5.46,8.94A8.88,8.88,0,0,1,415,43.44a13.9,13.9,0,0,1-4.41,3.84,14.74,14.74,0,0,1,5.55,4.53,10.3,10.3,0,0,1,1.95,6.09,11,11,0,0,1-1.56,5.82,10.7,10.7,0,0,1-4.35,4,13.6,13.6,0,0,1-6.33,1.44H386.2Zm17.7,17.46a8.36,8.36,0,0,0,5.61-1.86,6.22,6.22,0,0,0,0-9.48,8.36,8.36,0,0,0-5.61-1.86h-13v13.2Zm.72,19.5a9.16,9.16,0,0,0,6.27-2.13,7.42,7.42,0,0,0,0-11,9.16,9.16,0,0,0-6.27-2.13H390.88V64.92Z"/><path class="cls-1" d="M457.14,47.4A13.18,13.18,0,0,1,452.55,52a16,16,0,0,1-6.6,2.22l10.5,14.94h-5.34L440.67,54.36h-9.12V69.18h-4.68V28h16.74a17.43,17.43,0,0,1,7.68,1.68,13.45,13.45,0,0,1,5.49,4.71,12.58,12.58,0,0,1,.36,13Zm-25.59,2.52h11.23A13.21,13.21,0,0,0,451,47.58a7.61,7.61,0,0,0,3.09-6.42A7.61,7.61,0,0,0,451,34.74a13.21,13.21,0,0,0-8.18-2.34H431.55Z"/><path class="cls-1" d="M474.24,67a21.76,21.76,0,0,1-7.77-7.83,21,21,0,0,1,0-21.21,21.83,21.83,0,0,1,7.77-7.8,20.13,20.13,0,0,1,10.47-2.91,19.92,19.92,0,0,1,10.47,2.91,22,22,0,0,1,7.71,7.8,21,21,0,0,1,0,21.21A21.91,21.91,0,0,1,495.18,67a19.92,19.92,0,0,1-10.47,2.91A20.13,20.13,0,0,1,474.24,67Zm18.6-3.75a17.35,17.35,0,0,0,6-6.24,17.17,17.17,0,0,0,0-16.89,17,17,0,0,0-6-6.24,15.46,15.46,0,0,0-16.26,0,17.27,17.27,0,0,0-6,6.24,17,17,0,0,0,0,16.89,17.6,17.6,0,0,0,6,6.24,15.29,15.29,0,0,0,16.26,0Z"/><path class="cls-1" d="M514.23,28h4.68v22.8L539.79,28H546L528.63,46.8l18.48,22.38h-6.06L525.39,50l-6.48,6.84V69.18h-4.68Z"/><path class="cls-1" d="M558.27,32.4V46h22.38V50.4H558.27V64.74h24.84v4.44H553.53V28h29.58V32.4Z"/><path class="cls-1" d="M621.78,47.4A13.18,13.18,0,0,1,617.19,52a16,16,0,0,1-6.6,2.22l10.5,14.94h-5.34L605.31,54.36h-9.12V69.18h-4.68V28h16.74a17.43,17.43,0,0,1,7.68,1.68,13.45,13.45,0,0,1,5.49,4.71,12.58,12.58,0,0,1,.36,13Zm-25.59,2.52h11.22a13.23,13.23,0,0,0,8.19-2.34,7.61,7.61,0,0,0,3.09-6.42,7.61,7.61,0,0,0-3.09-6.42,13.23,13.23,0,0,0-8.19-2.34H596.19Z"/><path class="cls-1" d="M199.06,124.82h-23l-4.14,9.36h-5.1L185,93h5.1l18.18,41.22h-5.1Zm-1.92-4.44L187.6,98.72,178,120.38Z"/><path class="cls-1" d="M214.84,93h16.74a17.43,17.43,0,0,1,7.68,1.68,13.45,13.45,0,0,1,5.49,4.71,12.54,12.54,0,0,1,0,13.62,13.45,13.45,0,0,1-5.49,4.71,17.43,17.43,0,0,1-7.68,1.68H219.52v14.82h-4.68Zm15.9,22a13.23,13.23,0,0,0,8.19-2.34,8.21,8.21,0,0,0,0-12.84,13.23,13.23,0,0,0-8.19-2.34H219.52v17.52Z"/><path class="cls-1" d="M254.44,93h16.74a17.43,17.43,0,0,1,7.68,1.68,13.45,13.45,0,0,1,5.49,4.71,12.54,12.54,0,0,1,0,13.62,13.45,13.45,0,0,1-5.49,4.71,17.43,17.43,0,0,1-7.68,1.68H259.12v14.82h-4.68Zm15.9,22a13.23,13.23,0,0,0,8.19-2.34,8.21,8.21,0,0,0,0-12.84,13.23,13.23,0,0,0-8.19-2.34H259.12v17.52Z"/><path class="cls-1" d="M321.22,129.74v4.44H294V93h4.68v36.78Z"/><path class="cls-1" d="M327.76,93h4.68v41.22h-4.68Z"/><path class="cls-1" d="M371.2,124.82h-23l-4.14,9.36H339L357.16,93h5.1l18.18,41.22h-5.1Zm-1.92-4.44-9.54-21.66-9.6,21.66Z"/><path class="cls-1" d="M387,93h4.68l25.56,33.54V93h4.68v41.22h-4.68l-25.56-33.54v33.54H387Z"/><path class="cls-1" d="M441,132a21.76,21.76,0,0,1-7.77-7.83,21,21,0,0,1,0-21.21,21.83,21.83,0,0,1,7.77-7.8,20.34,20.34,0,0,1,18.51-1.26,21,21,0,0,1,6.78,4.65l-3.18,3.24a16.5,16.5,0,0,0-5.31-3.84,15.35,15.35,0,0,0-14.46.93,17.27,17.27,0,0,0-6,6.24,17,17,0,0,0,0,16.89,17.6,17.6,0,0,0,6,6.24,15.26,15.26,0,0,0,14.46,1,16.5,16.5,0,0,0,5.31-3.84l3.18,3.24a21.93,21.93,0,0,1-6.78,4.62,19.85,19.85,0,0,1-8,1.68A20.13,20.13,0,0,1,441,132Z"/><path class="cls-1" d="M478.24,97.4V111h22.37v4.44H478.24v14.34h24.83v4.44H473.49V93h29.58V97.4Z"/><circle class="cls-2" cx="92.5" cy="80.66" r="43.5"/><circle class="cls-3" cx="65.16" cy="53.17" r="11.01"/><path class="cls-4" d="M84.75,69,74.57,58.85a10.89,10.89,0,0,0,1.6-5.68,11,11,0,1,0-6,9.78L80.51,73.27ZM58.15,53.17a7,7,0,1,1,7,7A7,7,0,0,1,58.15,53.17Z"/><circle class="cls-3" cx="130.31" cy="80.8" r="11.01"/><path class="cls-4" d="M130.31,69.79a11,11,0,0,0-10.68,8.37H47.36v6h72.46a11,11,0,1,0,10.49-14.37Zm0,18a7,7,0,1,1,7-7A7,7,0,0,1,130.31,87.81Z"/><path class="cls-1" d="M92.5,28.16A52.5,52.5,0,1,0,145,80.66,52.51,52.51,0,0,0,92.5,28.16Zm0,96A43.5,43.5,0,1,1,136,80.66,43.5,43.5,0,0,1,92.5,124.16Z"/><circle class="cls-5" cx="92.99" cy="32.86" r="11.01"/><circle class="cls-6" cx="129.33" cy="117.77" r="11.01"/><circle class="cls-7" cx="70.76" cy="108.69" r="11.01"/><circle class="cls-8" cx="92.99" cy="80.42" r="17.5"/><path class="cls-3" d="M89.67,43.36v3.19h6.64V43.36a11,11,0,1,0-6.64,0ZM93,25.85a7,7,0,1,1-7,7A7,7,0,0,1,93,25.85Z"/><rect class="cls-3" x="89.67" y="48.76" width="6.64" height="3.32"/><rect class="cls-3" x="89.67" y="54.3" width="6.64" height="3.32"/><path class="cls-3" d="M81.57,100l-5.14-4.2-2,2.48a11,11,0,1,0,5.32,4ZM70.76,115.7a7,7,0,1,1,7-7A7,7,0,0,1,70.76,115.7Z"/><path class="cls-3" d="M108.8,92.52l-1.72-1.75A17.46,17.46,0,0,0,95.72,63.15h.59V59.83H89.67v3.32h.59A17.46,17.46,0,0,0,79.72,91.8l-1.93,2.36,5.15,4.2,2-2.43a17.37,17.37,0,0,0,17.28-.65l1.86,1.89ZM93,92.77a12.36,12.36,0,1,1,12.36-12.35A12.36,12.36,0,0,1,93,92.77Z"/><rect class="cls-3" x="113.53" y="103.8" width="6.64" height="3.3" transform="translate(-40.41 112.11) rotate(-44.49)"/><rect class="cls-3" x="105.81" y="95.94" width="6.64" height="3.3" transform="translate(-37.11 104.45) rotate(-44.49)"/><rect class="cls-3" x="109.67" y="99.87" width="6.64" height="3.3" transform="translate(-38.76 108.28) rotate(-44.49)"/><path class="cls-3" d="M129.33,106.76a11,11,0,0,0-5.24,1.32l-2.17-2.2-4.74,4.65,2.3,2.34a10.85,10.85,0,0,0-1.16,4.9,11,11,0,1,0,11-11Zm0,18a7,7,0,1,1,7-7A7,7,0,0,1,129.33,124.78Z"/></svg>