<svg width="123.6" height="114.16" viewBox="0 0 123.6 114.16" xmlns="http://www.w3.org/2000/svg" xmlns:xlink="http://www.w3.org/1999/xlink" overflow="hidden"><defs></defs><path d="M57.03 87.56 57.03 68.7 68.05 57.69 79.08 68.7 79.08 76.69C78.99 76.85 78.88 77 78.79 77.17 78.04 76.97 77.26 76.84 76.48 76.75L76.48 69.78 68.06 61.37 59.64 69.78 59.64 84.74C59.07 85.63 58.56 86.58 58.16 87.57 58.01 87.56 57.85 87.56 57.7 87.55L57.34 87.55C57.23 87.55 57.14 87.56 57.03 87.56ZM64.24 47.48C63.76 47.48 63.16 47.48 62.46 47.48L62.46 54.1 54.03 62.51 45.61 54.1 45.61 47.53C44.75 47.53 43.89 47.54 43.01 47.54L43.01 55.18 54.03 66.19 65.06 55.18 65.06 47.48C64.79 47.49 64.5 47.48 64.24 47.48ZM50.14 3.25C44.72 3.25 39.82 6.89 37.63 12.51L36.36 15.8 33.19 14.26C31.82 13.6 30.32 13.24 28.72 13.2 28.64 13.2 28.55 13.2 28.46 13.2 23.3 13.2 18.76 16.92 17.66 22.05L16.94 25.42 13.62 24.5C13 24.33 12.32 24.23 11.62 24.22L11.41 24.22C7.03 24.22 3.38 27.81 3.28 32.21 3.17 36.68 7.42 41.02 12.01 41.14 12.13 41.14 12.58 41.14 13.26 41.14 17.04 41.14 28.13 41.1 38.85 41.06 49.5 41.02 60.52 40.98 64.26 40.98 65.01 40.98 65.48 40.98 65.64 40.99L65.84 40.99C70.46 40.99 74.32 36.35 74.44 30.64 74.58 25.03 71.14 20.31 66.62 19.87L63.94 19.61 63.7 16.93C62.97 9.3 57.3 3.42 50.48 3.25 50.36 3.25 50.25 3.25 50.14 3.25M50.14 0C50.28 0 50.42 0 50.56 0.01 59.15 0.22 66.07 7.46 66.9 16.65 73.07 17.24 77.85 23.34 77.66 30.72 77.5 38.22 72.19 44.25 65.81 44.25 65.72 44.25 65.63 44.25 65.54 44.25 65.39 44.25 64.94 44.25 64.23 44.25 56.74 44.25 20.79 44.4 13.23 44.4 12.51 44.4 12.05 44.4 11.89 44.4 5.61 44.21-0.15 38.44 0 32.12 0.15 25.9 5.22 20.95 11.38 20.95 11.47 20.95 11.57 20.95 11.66 20.95 12.63 20.97 13.58 21.1 14.47 21.35 15.88 14.79 21.61 9.93 28.45 9.93 28.57 9.93 28.69 9.93 28.8 9.93 30.88 9.99 32.83 10.46 34.6 11.32 37.19 4.66 43.19 0 50.14 0L50.14 0ZM96.48 69.78C89.36 69.59 83.17 74.31 80.53 81.11 78.76 80.25 76.81 79.78 74.73 79.72 67.74 79.55 61.83 84.46 60.4 91.13 59.51 90.88 58.56 90.75 57.59 90.73 51.31 90.58 46.08 95.58 45.93 101.89 45.78 108.2 51.53 113.98 57.82 114.15 59.79 114.19 109.61 113.97 111.47 114 117.98 114.17 123.43 108.09 123.59 100.48 123.78 93.1 119 87 112.83 86.41 111.99 77.24 105.07 69.99 96.48 69.78L96.48 69.78Z" stroke="none" stroke-width="1" stroke-linecap="butt" fill="#1A428A" fill-opacity="1"/></svg>