<svg viewBox="0 0 96 96" xmlns="http://www.w3.org/2000/svg" xmlns:xlink="http://www.w3.org/1999/xlink" id="Icons_Workflow" overflow="hidden"><circle cx="71" cy="73.06" r="10" stroke="none" stroke-width="1" stroke-linecap="butt" fill="#0091DA" fill-opacity="1"/><circle cx="24" cy="24.06" r="10" stroke="none" stroke-width="1" stroke-linecap="butt" fill="#0091DA" fill-opacity="1"/><path d="M71 35.04 60.01 24.05 71 13.42 81.99 24.05 71 35.04Z" stroke="none" stroke-width="1" stroke-linecap="butt" fill="#0091DA" fill-opacity="1"/><rect x="14" y="63" width="20" height="20" stroke="none" stroke-width="1" stroke-linecap="butt" fill="#0091DA" fill-opacity="1"/><path d="M56.87 71.06 42 71.06 44 69.06C44.6848 68.3752 44.6848 67.2648 44 66.58 43.3152 65.8952 42.2048 65.8952 41.52 66.58L36.27 71.83C35.9467 72.1622 35.764 72.6064 35.76 73.07 35.7619 73.534 35.9449 73.9789 36.27 74.31L41.52 79.56C42.2076 80.2448 43.3202 80.2426 44.005 79.555 44.6898 78.8674 44.6876 77.7548 44 77.07L42 75.07 56.87 75.07Z" stroke="none" stroke-width="1" stroke-linecap="butt" fill="#0091DA" fill-opacity="1"/><path d="M57.55 22.77 52.3 17.52C51.6152 16.8379 50.5071 16.8402 49.825 17.525 49.1429 18.2098 49.1452 19.3179 49.83 20L51.83 22 38 22 38 26 51.84 26 49.84 28C49.1496 28.6793 49.1407 29.7896 49.82 30.48 50.4993 31.1704 51.6096 31.1793 52.3 30.5L57.55 25.25C58.2313 24.5637 58.2313 23.4563 57.55 22.77Z" stroke="none" stroke-width="1" stroke-linecap="butt" fill="#0091DA" fill-opacity="1"/><path d="M77.52 52.86C76.8337 52.1787 75.7263 52.1787 75.04 52.86L73.04 54.86 73.04 39 69 39 69 54.88 67 52.88C66.3152 52.1979 65.2071 52.2002 64.525 52.885 63.8429 53.5698 63.8452 54.6779 64.53 55.36L69.77 60.61C70.4563 61.2913 71.5637 61.2913 72.25 60.61L77.5 55.36C78.1958 54.6813 78.2097 53.567 77.531 52.8712 77.5274 52.8674 77.5237 52.8637 77.52 52.86Z" stroke="none" stroke-width="1" stroke-linecap="butt" fill="#0091DA" fill-opacity="1"/></svg>