<svg width="123.42" height="123.55" viewBox="0 0 123.42 123.55" xmlns="http://www.w3.org/2000/svg" xmlns:xlink="http://www.w3.org/1999/xlink" overflow="hidden"><defs></defs><path d="M23.47 70.83 15.67 70.83 15.67 67.58 23.47 67.58 23.47 70.83ZM9.43 67.58 3.25 67.58 3.25 61.4 0 61.4 0 70.83 9.43 70.83 9.43 67.58ZM3.25 38.3 0 38.3 0 55.63 3.25 55.63 3.25 38.3ZM3.25 15.2 0 15.2 0 32.53 3.25 32.53 3.25 15.2ZM3.25 3.25 9.43 3.25 9.43 0 0 0 0 9.43 3.25 9.43 3.25 3.25ZM55.84 0 38.44 0 38.44 3.25 55.84 3.25 55.84 0ZM32.63 0 15.23 0 15.23 3.25 32.63 3.25 32.63 0ZM71.06 0 61.63 0 61.63 3.25 67.81 3.25 67.81 9.43 71.06 9.43 71.06 0ZM71.06 15.29 67.81 15.29 67.81 23.09 71.06 23.09 71.06 15.29ZM46.79 92.98 38.99 92.98 38.99 96.23 46.79 96.23 46.79 92.98ZM34.86 92.98 28.69 92.98 28.69 86.81 25.44 86.81 25.44 96.23 34.86 96.23 34.86 92.98ZM28.69 63.71 25.44 63.71 25.44 81.04 28.69 81.04 28.69 63.71ZM28.69 40.61 25.44 40.61 25.44 57.94 28.69 57.94 28.69 40.61ZM28.69 28.66 34.86 28.66 34.86 25.41 25.44 25.41 25.44 34.83 28.69 34.83 28.69 28.66ZM81.27 25.41 63.87 25.41 63.87 28.66 81.27 28.66 81.27 25.41ZM58.07 25.41 40.67 25.41 40.67 28.66 58.07 28.66 58.07 25.41ZM96.5 25.41 87.07 25.41 87.07 28.66 93.25 28.66 93.25 34.83 96.5 34.83 96.5 25.41ZM96.5 39.36 93.25 39.36 93.25 47.16 96.5 47.16 96.5 39.36ZM120.17 53.74 53.35 53.74 53.35 120.3 120.17 120.3 120.17 53.74M123.42 50.49 123.42 123.55 50.1 123.55 50.1 50.49 123.42 50.49 123.42 50.49ZM104.72 82.33C105.11 83.83 105.34 85.4 105.34 87.02 105.34 97.33 96.92 105.73 86.56 105.73 76.21 105.73 67.78 97.34 67.78 87.02 67.78 76.7 76.2 68.31 86.56 68.31 91.67 68.31 96.31 70.36 99.7 73.68L102 71.38C98.02 67.48 92.57 65.06 86.57 65.06 74.42 65.06 64.54 74.91 64.54 87.02 64.54 99.13 74.42 108.98 86.57 108.98 98.72 108.98 108.6 99.13 108.6 87.02 108.6 84.46 108.14 82.01 107.32 79.73L104.72 82.33ZM111.36 71.19 109.06 68.89 85.32 92.67 75.96 83.34 73.67 85.64 85.33 97.26 111.36 71.19Z" stroke="none" stroke-width="1.11818" stroke-linecap="butt" fill="#78BE20" fill-opacity="1"/></svg>